<?xml version="1.0" standalone="no"?>
<!DOCTYPE svg PUBLIC "-//W3C//DTD SVG 20010904//EN"
 "http://www.w3.org/TR/2001/REC-SVG-20010904/DTD/svg10.dtd">
<svg version="1.0" xmlns="http://www.w3.org/2000/svg"
 width="413.000000pt" height="531.000000pt" viewBox="0 0 413.000000 531.000000"
 preserveAspectRatio="xMidYMid meet">

<g transform="translate(0.000000,531.000000) scale(0.100000,-0.100000)"
fill="#000000" stroke="none">
<path d="M1945 4879 c-71 -10 -171 -32 -221 -49 -49 -16 -96 -30 -104 -30 -7
0 -32 -8 -54 -19 -23 -10 -57 -24 -76 -31 -59 -21 -99 -40 -105 -50 -4 -6 -11
-8 -16 -4 -6 3 -30 -4 -54 -15 -25 -12 -54 -21 -66 -21 -11 0 -33 -6 -47 -14
-15 -8 -43 -21 -63 -30 -20 -9 -40 -23 -43 -31 -3 -9 -22 -23 -41 -31 -19 -8
-35 -18 -35 -23 0 -4 -16 -25 -36 -46 -32 -34 -35 -43 -30 -75 5 -30 2 -41
-15 -56 -12 -10 -28 -32 -36 -49 -14 -30 -14 -30 4 -8 18 23 18 23 15 -30 -2
-33 4 -75 16 -112 12 -38 17 -76 14 -104 -2 -24 3 -70 12 -105 9 -33 18 -75
20 -92 3 -32 34 -121 48 -140 15 -20 64 -200 62 -229 -3 -62 -3 -62 -15 -45
-20 29 2 -53 31 -115 22 -48 29 -80 34 -158 6 -88 4 -101 -13 -123 -11 -14
-18 -33 -16 -42 11 -57 29 -108 42 -117 9 -7 18 -41 25 -96 18 -159 27 -210
40 -225 5 -7 9 -37 9 -69 1 -41 5 -55 14 -52 8 4 11 -4 9 -24 -3 -20 0 -28 7
-23 7 4 9 -1 4 -15 -8 -25 3 -64 16 -56 5 4 10 0 11 -7 0 -7 2 -17 3 -23 2 -5
3 -23 4 -38 1 -19 5 -26 13 -21 7 5 8 3 4 -5 -5 -7 3 -38 17 -69 14 -31 31
-84 37 -117 26 -131 123 -249 303 -368 275 -182 420 -266 458 -267 15 0 119
67 384 248 168 115 266 201 281 248 5 16 4 16 -7 -1 -19 -32 -62 -75 -75 -75
-21 0 -23 38 -3 61 10 12 19 26 19 31 0 5 5 14 10 21 44 52 71 94 75 116 3 14
17 48 31 74 13 26 21 53 18 59 -4 6 -3 8 3 5 22 -14 87 166 102 281 5 42 12
133 16 202 6 125 22 267 32 283 3 4 11 3 18 -3 11 -9 17 -5 29 19 23 43 20 80
-10 123 -15 21 -29 38 -31 38 -2 0 -1 -33 2 -72 5 -53 4 -69 -4 -58 -6 8 -11
11 -11 7 0 -12 -38 -213 -55 -287 -8 -36 -17 -101 -21 -145 -5 -63 -13 -90
-35 -127 -16 -28 -24 -48 -17 -48 7 0 5 -5 -4 -13 -9 -6 -19 -25 -23 -42 -12
-42 -12 -44 -15 -50 -1 -3 -3 -8 -4 -12 -3 -22 -49 -71 -80 -88 -20 -11 -36
-25 -36 -32 0 -7 -6 -13 -14 -13 -7 0 -19 -7 -26 -15 -9 -11 -17 -12 -30 -5
-25 13 -30 13 -30 -5 0 -8 -4 -16 -10 -16 -5 -1 -14 -2 -18 -3 -5 0 -25 -19
-45 -40 -20 -21 -37 -35 -37 -30 0 4 -5 3 -11 -3 -6 -6 -18 -9 -25 -6 -9 3
-14 -2 -14 -13 0 -16 -2 -17 -11 -4 -8 11 -12 12 -16 2 -2 -6 -9 -10 -14 -6
-5 3 -9 0 -9 -7 0 -7 -10 -9 -30 -6 -18 4 -34 1 -43 -7 -8 -9 -19 -11 -27 -6
-8 5 -22 4 -31 -1 -12 -6 -19 -5 -21 3 -5 13 -188 21 -188 8 0 -5 -7 -7 -15
-4 -8 4 -22 0 -31 -7 -8 -7 -14 -8 -12 -3 3 8 -6 16 -14 13 -21 -7 -75 -5 -85
3 -9 7 -13 7 -13 -1 0 -6 -10 -11 -23 -11 -13 0 -28 -5 -35 -12 -9 -9 -13 -6
-20 12 -7 19 -10 20 -15 7 -6 -17 -49 -15 -55 3 -2 5 -10 10 -17 10 -7 0 -15
6 -18 14 -3 8 -14 12 -25 9 -13 -3 -28 6 -48 30 -15 19 -34 33 -41 30 -17 -7
-104 38 -96 50 3 6 1 7 -5 4 -5 -4 -30 11 -53 33 -24 22 -47 40 -51 40 -4 0
-8 7 -8 15 0 8 -7 15 -15 15 -13 0 -20 19 -16 44 1 4 -7 16 -19 26 -11 9 -20
26 -20 36 0 11 -7 30 -16 42 -8 12 -18 35 -20 50 -3 15 -9 31 -15 36 -5 6 -9
20 -9 32 0 13 -5 26 -10 29 -6 4 -8 10 -6 14 4 6 -3 60 -28 194 -3 16 -10 43
-15 60 -22 69 -41 228 -41 350 0 70 3 127 8 127 4 0 15 -29 24 -65 39 -149
105 -232 201 -257 66 -16 235 -14 305 5 l52 14 -24 -41 c-13 -23 -24 -44 -25
-49 -3 -24 -15 -64 -23 -74 -5 -7 -7 -16 -4 -22 3 -5 1 -11 -5 -13 -11 -4 -2
-38 12 -38 4 0 20 16 35 35 16 22 33 34 41 31 8 -3 11 -1 8 4 -11 18 33 10 69
-12 25 -17 33 -28 29 -41 -4 -17 -43 -63 -43 -52 0 2 -21 -16 -47 -40 -25 -24
-50 -42 -54 -40 -4 3 -9 -2 -13 -10 -3 -8 -12 -15 -20 -15 -8 0 -21 -9 -29
-20 -8 -12 -20 -20 -27 -18 -8 2 -19 -7 -25 -19 -7 -13 -15 -20 -19 -16 -4 4
-4 0 0 -10 3 -9 1 -17 -4 -17 -19 0 -2 -69 35 -147 17 -34 30 -50 39 -46 15 6
10 -20 -9 -44 -7 -10 -4 -13 12 -13 11 0 22 3 22 8 1 4 3 19 5 34 6 51 71 98
135 98 17 0 42 6 58 14 19 10 46 13 92 9 73 -6 89 -6 177 -2 35 1 67 -2 70 -7
4 -6 30 -11 57 -12 60 -3 103 -10 130 -22 11 -4 35 -14 53 -22 23 -9 35 -22
40 -43 5 -17 16 -31 26 -33 11 -3 16 0 12 7 -4 6 2 16 13 23 16 10 18 16 9 32
-8 15 -8 21 1 24 6 2 11 15 11 28 0 14 4 33 9 42 5 9 11 35 14 57 5 34 2 44
-19 64 -20 19 -27 21 -39 11 -13 -11 -14 -10 -9 3 3 10 -2 20 -15 27 -12 6
-21 8 -21 4 0 -4 -11 3 -25 16 -14 13 -28 21 -31 17 -4 -3 -13 1 -21 9 -9 8
-23 12 -34 9 -12 -4 -21 -1 -25 9 -3 8 -12 12 -20 9 -8 -3 -14 0 -14 6 0 6 -6
11 -13 11 -7 0 -20 21 -30 46 l-17 46 34 34 c49 49 93 48 125 -5 14 -21 40
-46 58 -55 24 -11 32 -12 26 -4 -4 7 -6 21 -5 31 2 9 -1 17 -7 17 -6 0 -8 7
-5 15 4 9 -1 18 -11 21 -12 5 -13 9 -4 14 6 5 10 14 7 21 -3 8 -5 16 -4 19 0
3 -17 22 -39 42 l-40 37 45 -10 c63 -15 255 -5 310 15 95 35 154 127 196 304
14 59 28 115 30 125 11 37 22 14 28 -62 10 -111 23 -155 22 -74 -1 46 3 66 15
75 21 16 58 75 42 65 -9 -6 -13 -1 -13 16 0 16 -7 26 -20 30 -15 4 -20 14 -20
37 0 31 1 32 23 18 14 -10 24 -30 28 -54 4 -28 7 -16 8 43 0 45 8 111 16 148
9 36 13 70 10 75 -3 5 -1 11 5 15 5 3 10 22 10 41 0 19 5 34 11 34 6 0 8 7 5
15 -3 9 1 18 8 21 12 5 12 12 -1 48 -17 45 -12 83 9 70 8 -5 9 0 5 17 -4 13
-10 41 -13 61 -4 21 -18 48 -35 64 -16 15 -29 33 -29 40 0 6 -16 26 -35 42
l-34 31 33 19 c55 33 126 132 126 175 0 7 -4 6 -10 -3 -8 -13 -10 -12 -10 3 0
27 -1 31 -12 44 -5 7 -7 17 -4 22 4 5 1 13 -5 17 -9 5 -10 -6 -5 -40 5 -30 4
-46 -3 -46 -6 0 -11 18 -11 39 0 22 -4 51 -10 66 -6 15 -6 24 -1 20 17 -10 22
13 9 36 -7 13 -24 33 -38 46 -34 32 -246 134 -264 127 -8 -3 -17 0 -22 7 -5 9
-2 10 10 6 11 -4 15 -3 10 4 -9 14 -124 89 -138 89 -5 0 12 -14 38 -31 68 -43
49 -49 -21 -6 -32 20 -71 38 -88 42 -30 6 -29 6 4 -10 57 -26 29 -26 -45 0
-57 20 -62 24 -29 20 30 -4 35 -3 19 4 -29 13 -181 22 -163 9 10 -7 7 -8 -11
-3 -114 30 -244 31 -435 4z m596 -98 c53 -53 67 -87 20 -49 -15 13 -27 26 -25
29 6 10 -54 61 -64 55 -6 -4 -13 -2 -17 4 -3 6 3 10 15 10 13 0 43 -20 71 -49z
m374 -101 c3 -6 -1 -7 -9 -4 -18 7 -21 14 -7 14 6 0 13 -4 16 -10z m146 -116
c9 -16 20 -40 23 -54 7 -24 7 -25 -9 -5 -29 35 -58 98 -43 93 7 -3 20 -18 29
-34z m-2071 -118 c0 -15 -18 -31 -26 -23 -7 7 7 37 17 37 5 0 9 -6 9 -14z
m1597 -161 c20 -5 38 -3 46 4 10 8 29 3 78 -22 119 -61 137 -76 162 -130 14
-29 16 -48 11 -85 -4 -26 -7 -55 -5 -64 1 -10 -3 -18 -10 -18 -8 0 -6 -6 4
-18 10 -10 17 -23 17 -29 0 -5 13 -28 29 -49 15 -22 33 -55 39 -74 12 -38 32
-185 32 -238 l0 -34 -49 7 c-26 3 -79 15 -117 26 -62 17 -64 18 -21 13 52 -6
57 1 27 37 -14 17 -20 20 -20 9 0 -12 -3 -11 -11 3 -5 9 -15 17 -21 17 -5 0
-24 11 -40 25 -16 14 -33 23 -38 20 -4 -3 -10 1 -13 8 -7 20 -101 24 -305 13
-56 -3 -90 -1 -87 5 9 14 -3 11 -30 -7 -14 -9 -25 -12 -25 -6 0 14 -33 8 -38
-6 -2 -7 -11 -12 -21 -12 -9 0 -22 -5 -29 -12 -7 -7 -12 -8 -12 -3 0 4 -10 0
-22 -11 -18 -16 -21 -17 -15 -2 6 18 -7 18 -54 0 -15 -6 -30 -8 -33 -4 -9 9
-39 12 -156 19 -58 3 -113 10 -123 15 -25 13 -165 20 -172 8 -3 -5 -15 -6 -28
-1 -44 17 -120 -20 -227 -112 -17 -15 -127 -46 -135 -39 -8 8 5 170 16 207 5
17 19 41 32 55 13 14 24 32 25 40 2 15 10 63 11 68 1 1 1 4 1 7 1 2 7 20 15
39 8 18 12 35 10 37 -2 3 8 27 23 54 46 84 161 170 257 191 73 15 96 17 140
11 17 -3 36 0 42 5 8 6 40 8 80 4 38 -4 93 -6 123 -5 96 4 184 3 215 -3 17 -2
45 2 64 9 19 8 50 13 68 11 18 -2 33 0 33 4 0 4 11 8 25 8 14 0 25 5 25 11 0
11 148 7 207 -6z m128 -694 c53 -11 5 -12 -55 -2 -34 6 -37 9 -15 9 17 1 48
-3 70 -7z m-1248 -65 c6 -6 -71 -48 -109 -60 -17 -5 -17 -9 -3 -106 2 -14 4
-28 4 -32 1 -5 12 -8 25 -8 19 0 26 -7 31 -29 4 -20 13 -31 28 -33 14 -2 21
-10 21 -21 -1 -12 6 -17 22 -17 14 0 35 -6 47 -14 37 -23 97 -28 186 -15 47 7
88 16 91 19 9 13 53 23 46 11 -4 -6 -2 -11 3 -11 29 0 -13 -102 -63 -151 -55
-55 -107 -71 -243 -77 -114 -4 -124 -3 -176 21 -92 42 -134 118 -159 288 -9
59 -9 86 0 117 17 55 48 92 78 92 14 0 22 4 19 10 -3 5 7 12 22 16 15 3 33 7
38 9 12 5 86 -3 92 -9z m1368 -19 c26 -14 48 -38 63 -67 58 -112 -13 -350
-127 -427 -46 -31 -132 -46 -231 -41 -144 9 -225 58 -273 167 -33 75 -42 105
-28 97 6 -4 11 -1 11 8 0 8 7 19 17 24 14 9 12 14 -15 43 -32 34 -41 59 -22
59 6 0 10 -5 10 -11 0 -5 4 -7 10 -4 5 3 7 0 4 -8 -3 -9 2 -16 13 -19 11 -3
23 -23 32 -52 10 -35 21 -50 40 -58 14 -6 40 -17 56 -24 57 -24 80 -25 144 -4
35 11 70 20 77 20 8 0 14 5 14 10 0 6 14 10 31 10 l31 0 -23 18 -22 19 29 6
c23 4 30 11 30 29 0 22 -3 23 -63 20 -38 -2 -63 0 -63 6 0 6 10 12 23 14 15 2
21 9 20 23 -1 11 0 15 3 8 3 -7 12 -9 20 -6 7 3 11 10 7 16 -4 6 -1 7 8 2 7
-5 23 -10 34 -11 26 -3 113 18 97 24 -14 4 -16 42 -2 42 19 0 10 37 -15 64
l-24 26 22 0 c12 0 40 -10 62 -23z m-124 -33 c16 -15 27 -29 25 -31 -6 -6
-136 51 -136 59 0 4 18 6 41 4 28 -3 51 -13 70 -32z m-681 16 c-8 -5 -10 -10
-5 -11 6 0 -12 -6 -40 -13 -57 -14 -83 1 -37 21 34 15 105 18 82 3z m137 -1
c24 -9 26 -12 12 -20 -20 -10 -105 3 -122 20 -15 15 71 15 110 0z m-609 -20
c-10 -5 -38 -16 -62 -23 -35 -11 -43 -11 -40 -1 6 14 57 33 94 34 22 0 23 -1
8 -10z m565 -57 c9 -8 17 -20 17 -26 0 -6 22 -81 49 -166 28 -85 53 -168 56
-183 3 -15 13 -31 23 -34 38 -14 52 -36 52 -83 0 -31 -6 -55 -17 -69 l-18 -21
-50 24 -49 24 -38 -19 c-22 -11 -51 -17 -70 -15 -18 2 -43 -1 -55 -7 -17 -7
-28 -6 -47 7 -31 20 -73 20 -106 1 -35 -20 -45 -18 -58 10 -19 40 -14 79 13
116 31 43 34 50 80 189 82 249 142 317 218 252z m-613 -87 c0 -8 5 -15 10 -15
6 0 10 -7 10 -15 0 -10 10 -13 34 -11 19 1 33 -1 31 -5 -8 -11 -84 -9 -108 4
-50 27 -51 29 -26 43 32 18 49 17 49 -1z m379 -21 c-6 -7 -15 -11 -21 -8 -5 3
-4 12 3 20 6 7 15 11 21 8 5 -3 4 -12 -3 -20z m198 -779 c0 -11 -11 -15 -36
-14 l-36 0 35 13 c19 8 35 14 36 15 0 0 1 -6 1 -14z m-650 -562 c-4 -3 -1 -13
6 -21 10 -13 9 -14 -3 -10 -19 6 -26 38 -9 38 7 0 9 -3 6 -7z m33 -63 c0 -5
-2 -10 -4 -10 -3 0 -8 5 -11 10 -3 6 -1 10 4 10 6 0 11 -4 11 -10z m21 -37
c13 -16 12 -17 -3 -4 -10 7 -18 15 -18 17 0 8 8 3 21 -13z"/>
<path d="M3126 4533 c-3 -3 -6 -13 -6 -21 0 -12 3 -12 15 -2 8 7 15 8 15 3 0
-5 7 -18 15 -29 14 -17 14 -16 1 13 -17 35 -30 46 -40 36z"/>
<path d="M881 4234 c0 -11 3 -14 6 -6 3 7 2 16 -1 19 -3 4 -6 -2 -5 -13z"/>
<path d="M3114 3291 c-33 -20 -64 -58 -64 -76 0 -5 5 -2 11 8 15 26 47 21 62
-10 8 -16 24 -57 36 -93 32 -96 36 -100 56 -54 32 75 -1 235 -50 242 -11 1
-34 -6 -51 -17z"/>
<path d="M970 3230 c-7 -18 -11 -58 -8 -102 3 -58 9 -81 30 -113 14 -22 36
-65 49 -95 12 -30 34 -71 48 -90 21 -29 26 -32 29 -16 2 10 0 21 -5 25 -5 3
-27 37 -48 76 l-39 70 17 99 c10 55 24 108 33 117 15 16 13 19 -25 38 -54 28
-66 26 -81 -9z"/>
<path d="M2741 2396 c-8 -9 -11 -19 -7 -23 9 -9 29 13 24 27 -2 8 -8 7 -17 -4z"/>
<path d="M2022 2342 c-12 -2 -27 -12 -33 -23 -5 -11 -15 -19 -22 -18 -26 5
-104 -26 -127 -51 -27 -27 -24 -39 13 -53 9 -3 17 -14 17 -22 0 -9 4 -13 10
-10 5 3 20 -1 33 -10 30 -19 240 -34 251 -17 4 6 13 9 20 6 11 -4 96 67 96 82
0 17 -44 64 -60 64 -10 0 -31 7 -46 15 -16 8 -37 15 -46 15 -9 0 -19 4 -22 9
-7 10 -52 17 -84 13z"/>
<path d="M1630 2210 c-12 -23 2 -27 19 -6 8 9 8 16 2 20 -6 4 -15 -3 -21 -14z"/>
<path d="M1244 1901 c-28 -27 -110 -118 -183 -202 -199 -231 -194 -227 -438
-316 -209 -75 -369 -137 -453 -176 -25 -11 -73 -33 -107 -48 l-63 -28 0 -566
0 -565 749 0 748 0 -28 102 c-80 282 -199 759 -199 792 0 17 28 15 40 -3 6
-10 10 -9 19 5 9 17 10 16 11 -11 l0 -29 16 22 c28 40 28 92 1 178 -37 116
-78 344 -84 464 -3 69 0 141 10 210 25 169 30 220 21 220 -5 0 -32 -22 -60
-49z"/>
<path d="M2906 1725 c7 -135 -1 -239 -31 -410 -8 -44 -21 -127 -30 -185 -20
-126 -35 -180 -67 -246 -16 -31 -32 -92 -43 -164 -10 -63 -28 -167 -42 -230
-43 -208 -72 -364 -79 -427 l-7 -63 762 0 761 0 -2 561 -3 561 -180 63 c-550
190 -592 214 -836 462 -85 87 -163 170 -173 186 -33 50 -38 33 -30 -108z"/>
<path d="M1910 1321 c0 -5 -14 -11 -31 -15 -44 -9 -165 -134 -208 -216 -25
-46 -29 -61 -16 -50 17 14 18 13 12 -2 -7 -20 23 -33 58 -24 18 5 22 11 17 28
-3 15 7 7 31 -25 21 -26 37 -50 37 -53 0 -3 8 -18 19 -32 10 -15 24 -44 30
-64 7 -21 16 -38 21 -38 4 0 -3 -35 -17 -77 -33 -102 -43 -138 -54 -198 -10
-57 -12 -64 -32 -160 -9 -38 -18 -99 -22 -135 -4 -36 -8 -81 -10 -100 -3 -19
-7 -63 -11 -98 l-6 -62 366 0 366 0 -5 73 c-5 74 -12 167 -20 270 -3 31 -7 67
-9 80 -3 12 -8 49 -11 83 -8 98 -43 243 -65 275 -14 19 -19 36 -15 50 15 45
155 252 155 229 1 -22 32 -56 73 -79 l35 -20 -32 57 c-18 31 -44 75 -58 97
-32 50 -143 172 -170 186 -29 15 -70 19 -91 7 -10 -5 -71 -11 -135 -14 -64 -2
-130 -7 -147 -10 -27 -6 -28 -5 -15 10 12 15 12 19 -1 27 -18 11 -39 12 -39 0z"/>
<path d="M1380 616 c0 -52 5 -107 11 -123 10 -26 11 -27 21 -9 10 18 4 149 -9
204 -12 50 -23 16 -23 -72z"/>
</g>
</svg>
